<svg xmlns="http://www.w3.org/2000/svg" viewBox="0 0 24 24" width="48" height="48" fill="none">
  <path fill="#FFFFFF" d="M12 15.5a3.5 3.5 0 1 0 0-7 3.5 3.5 0 0 0 0 7z"/>
  <path fill="#FFFFFF" d="M19.4 15a1.65 1.65 0 0 0 .33 1.82l.06.06a2 2 0 1 1-2.83 2.83l-.06-.06a1.65 1.65 0 0 0-1.82-.33 1.65 1.65 0 0 0-1 1.51V21a2 2 0 1 1-4 0v-.09a1.65 1.65 0 0 0-1-1.51 1.65 1.65 0 0 0-1.82.33l-.06.06A2 2 0 1 1 2.27 17.3l.06-.06a1.65 1.65 0 0 0 .33-1.82 1.65 1.65 0 0 0-1.51-1H3a2 2 0 1 1 0-4h.09c.7 0 1.27-.39 1.51-1a1.65 1.65 0 0 0-.33-1.82l-.06-.06A2 2 0 1 1 6.7 2.27l.06.06c.4.4.94.65 1.51.65H9a1.65 1.65 0 0 0 1.51-1c.23-.61.8-1 1.51-1H13a2 2 0 1 1 4 0v.09c.7 0 1.27.39 1.51 1 .22.58.8 1 1.51 1H21a2 2 0 1 1 0 4h-.09c-.7 0-1.27.39-1.51 1-.22.58-.8 1-1.51 1H15c-.7 0-1.27.39-1.51 1-.22.58-.8 1-1.51 1H9"/>
</svg>